<svg width="512" height="512" viewBox="0 0 512 512" fill="none" xmlns="http://www.w3.org/2000/svg">
<path d="M0 256C0 114.615 114.615 0 256 0V0C397.385 0 512 114.615 512 256V256C512 397.385 397.385 512 256 512V512C114.615 512 0 397.385 0 256V256Z" fill="#8022D1"/>
<path d="M113.478 279.125V258.125L188.728 216.825V238.175L133.778 267.925V269.325L188.728 299.075V320.425L113.478 279.125ZM217.184 346.15L274.759 189H294.884L237.309 346.15H217.184ZM323.341 299.075L378.291 269.325V267.925L323.341 238.175V216.825L398.591 258.125V279.125L323.341 320.425V299.075Z" fill="#24273A"/>
</svg>
